<svg xmlns="http://www.w3.org/2000/svg" width="1133" xmlns:ev="http://www.w3.org/2001/xml-events" viewBox="0 0 1133 804" height="804" xmlns:xlink="http://www.w3.org/1999/xlink"><defs/><g id="page1" transform="translate(5.5,5.5)"><rect width="1123" x="0" height="794" y="0" fill="#f9ef82"/><path d="M.0,.0L1122.5,.0L1122.5,793.7L.0,793.7L.0,.0z" fill-rule="nonzero" id="shape1" fill="#c5ccc5"/><path d="M232.9,567.0C239.5,567.0,244.9,561.6,244.9,555.0L244.9,12.0C244.9,5.4,239.5,.0,232.9,.0L12.0,.0C5.4,.0,.0,5.4,.0,12.0L.0,555.0C.0,561.6,5.4,567.0,12.0,567.0L232.9,567.0z" stroke="#696969" fill-rule="nonzero" stroke-width="2" id="shape2" transform="translate(141.47,114.94)" fill="#ffffff"/><path d="M560.3,253.6C566.9,253.6,572.3,248.2,572.3,241.6L572.3,12.0C572.3,5.4,566.9,.0,560.3,.0L12.0,.0C5.4,.0,.0,5.4,.0,12.0L.0,241.6C.0,248.2,5.4,253.6,12.0,253.6L560.3,253.6z" stroke="#696969" fill-rule="nonzero" stroke-width="2" id="shape3" transform="matrix(0.00,1.00,-1.00,0.00,680.9,110.7)" fill="#ffffff"/><path d="M560.3,256.3C566.9,256.3,572.3,251.0,572.3,244.3L572.3,12.0C572.3,5.4,566.9,.0,560.3,.0L12.0,.0C5.4,.0,.0,5.4,.0,12.0L.0,244.3C.0,251.0,5.4,256.3,12.0,256.3L560.3,256.3z" stroke="#696969" fill-rule="nonzero" stroke-width="2" id="shape4" transform="matrix(0.00,1.00,-1.00,0.00,981.0,110.7)" fill="#ffffff"/><g id="shape5" transform="translate(465.20,272.84)"><path d="M172.7,65.1L172.7,11.0C172.7,4.9,167.8,.0,161.7,.0L11.0,.0C4.9,.0,.0,4.9,.0,11.0L.0,65.1C.0,71.2,4.9,76.1,11.0,76.1L161.7,76.1C167.8,76.1,172.7,71.2,172.7,65.1z" fill-rule="nonzero" fill="#cbe2d0"/><text style="fill:#191919;font-family:Times New Roman;font-size:17.00pt" xml:space="preserve"><tspan x="39.0" y="44.5">geography</tspan></text></g><g id="shape6" transform="translate(465.19,396.76)"><path d="M173.7,65.1L173.7,11.0C173.7,4.9,168.8,.0,162.7,.0L11.0,.0C4.9,.0,.0,4.9,.0,11.0L.0,65.1C.0,71.2,4.9,76.1,11.0,76.1L162.7,76.1C168.8,76.1,173.7,71.2,173.7,65.1z" fill-rule="nonzero" fill="#cbe2d0"/><text style="fill:#191919;font-family:Times New Roman;font-size:17.00pt" xml:space="preserve"><tspan x="54.5" y="44.5">species</tspan></text></g><g id="shape7" transform="translate(463.37,138.44)"><path d="M.0,38.0C.0,17.0,38.7,.0,86.4,.0C134.1,.0,172.7,17.0,172.7,38.0C172.7,59.0,134.1,76.1,86.4,76.1C38.7,76.1,.0,59.0,.0,38.0z" fill-rule="nonzero" fill="#e9b2b6"/><text style="fill:#191919;font-family:Times New Roman;font-size:17.00pt;font-weight:bold" xml:space="preserve"><tspan x="43.0" y="32.0">superior </tspan><tspan x="42.7" y="58.0">indicator</tspan></text></g><g id="shape8" transform="translate(168.77,137.37)"><path d="M.0,38.0C.0,17.0,38.7,.0,86.4,.0C134.1,.0,172.7,17.0,172.7,38.0C172.7,59.0,134.1,76.1,86.4,76.1C38.7,76.1,.0,59.0,.0,38.0z" fill-rule="nonzero" fill="#e9b2b6"/><text style="fill:#191919;font-family:Times New Roman;font-size:17.00pt;font-weight:bold" xml:space="preserve"><tspan x="16.0" y="45.0">standard layer</tspan></text></g><g id="shape9" transform="translate(747.10,125.99)"><path d="M.0,38.0C.0,17.0,47.4,.0,105.8,.0C164.2,.0,211.6,17.0,211.6,38.0C211.6,59.0,164.2,76.1,105.8,76.1C47.4,76.1,.0,59.0,.0,38.0z" fill-rule="nonzero" fill="#e9b2b6"/><text style="fill:#191919;font-family:Times New Roman;font-size:17.00pt;font-weight:bold" xml:space="preserve"><tspan x="69.1" y="32.0">inferior</tspan><tspan x="62.1" y="58.0">indicator</tspan></text></g><path d="M220.7,185.3L220.7,.0L.0,.0L.0,185.3L220.7,185.3z" stroke="#696969" fill-rule="nonzero" stroke-width="1.333330035209656" id="shape10" transform="translate(742.57,218.22)" stroke-dasharray="11,5" fill="#ffffff"/><g id="shape11" transform="translate(755.24,233.97)"><path d="M195.3,46.5L195.3,.0L.0,.0L.0,46.5L195.3,46.5z" fill-rule="nonzero" fill="#fcdda1"/><text style="fill:#191919;font-family:Times New Roman;font-size:17.00pt" xml:space="preserve"><tspan x="64.3" y="29.7">latitude</tspan></text></g><g id="shape12" transform="translate(755.24,287.64)"><path d="M195.3,46.5L195.3,.0L.0,.0L.0,46.5L195.3,46.5z" fill-rule="nonzero" fill="#fcdda1"/><text style="fill:#191919;font-family:Times New Roman;font-size:17.00pt" xml:space="preserve"><tspan x="41.7" y="29.7">precipitation</tspan></text></g><g id="shape13" transform="translate(755.24,341.31)"><path d="M195.3,46.5L195.3,.0L.0,.0L.0,46.5L195.3,46.5z" fill-rule="nonzero" fill="#fcdda1"/><text style="fill:#191919;font-family:Times New Roman;font-size:17.00pt" xml:space="preserve"><tspan x="40.7" y="29.7">soil property</tspan></text></g><path d="M220.7,185.3L220.7,.0L.0,.0L.0,185.3L220.7,185.3z" stroke="#696969" fill-rule="nonzero" stroke-width="1.333330035209656" id="shape14" transform="translate(742.57,461.74)" stroke-dasharray="11,5" fill="#ffffff"/><g id="shape15" transform="translate(755.24,475.91)"><path d="M195.3,46.9L195.3,.0L.0,.0L.0,46.9L195.3,46.9z" fill-rule="nonzero" fill="#fcdda1"/><text style="fill:#191919;font-family:Times New Roman;font-size:17.00pt" xml:space="preserve"><tspan x="74.0" y="29.9">slope</tspan></text></g><g id="shape16" transform="translate(755.22,530.96)"><path d="M195.3,46.9L195.3,.0L.0,.0L.0,46.9L195.3,46.9z" fill-rule="nonzero" fill="#fcdda1"/><text style="fill:#191919;font-family:Times New Roman;font-size:17.00pt" xml:space="preserve"><tspan x="33.3" y="29.9">Slope position</tspan></text></g><g id="shape17" transform="translate(755.24,586.00)"><path d="M195.3,46.9L195.3,.0L.0,.0L.0,46.9L195.3,46.9z" fill-rule="nonzero" fill="#fcdda1"/><text style="fill:#191919;font-family:Times New Roman;font-size:17.00pt" xml:space="preserve"><tspan x="57.3" y="29.9">elevation</tspan></text></g><g id="shape18" transform="translate(465.20,515.59)"><path d="M172.7,65.1L172.7,11.0C172.7,4.9,167.8,.0,161.7,.0L11.0,.0C4.9,.0,.0,4.9,.0,11.0L.0,65.1C.0,71.2,4.9,76.1,11.0,76.1L161.7,76.1C167.8,76.1,172.7,71.2,172.7,65.1z" fill-rule="nonzero" fill="#cbe2d0"/><text style="fill:#191919;font-family:Times New Roman;font-size:17.00pt" xml:space="preserve"><tspan x="35.4" y="44.5">topography</tspan></text></g><g id="shape19" transform="translate(637.93,310.88)"><path stroke="#880000" d="M.0,.0L93.5,.0" stroke-width="3.666670083999634" fill="none"/><path stroke="#880000" d="M93.5,-5.7L105.0,.0L93.5,5.7L93.5,-5.7" stroke-width="1" stroke-linecap="round" fill="#880000"/></g><g id="shape20" transform="translate(637.93,553.63)"><path stroke="#880000" d="M.0,.0L93.5,.0" stroke-width="3.666670083999634" fill="none"/><path stroke="#880000" d="M93.5,-5.7L105.0,.0L93.5,5.7L93.5,-5.7" stroke-width="1" stroke-linecap="round" fill="#880000"/></g><g id="shape21" transform="translate(155.83,350.09)"><path d="M216.1,83.7L216.1,11.0C216.1,4.9,211.2,.0,205.1,.0L11.0,.0C4.9,.0,.0,4.9,.0,11.0L.0,83.7C.0,89.8,4.9,94.7,11.0,94.7L205.1,94.7C211.2,94.7,216.1,89.8,216.1,83.7z" fill-rule="nonzero" fill="#c6eafd"/><text style="fill:#191919;font-family:Times New Roman;font-size:17.00pt" xml:space="preserve"><tspan x="23.4" y="40.4">growth rate impact </tspan><tspan x="82.1" y="67.0">factor</tspan></text></g><g id="shape22" transform="translate(371.97,397.44)"><path stroke="#880000" d="M.0,.0L44.5,.0" stroke-width="3.666666746139526" fill="none"/><path stroke="#880000" d="M44.5,-5.7L56.0,.0L44.5,5.7L44.5,-5.7" stroke-width="1" stroke-linecap="round" fill="#880000"/></g></g></svg>